<svg xmlns="http://www.w3.org/2000/svg" viewBox="0 0 640 400" font-family="'Microsoft YaHei','PingFang SC',sans-serif">
<rect width="640" height="400" fill="#ffffff"/>
<text x="320.0" y="30" text-anchor="middle" font-size="17" font-weight="bold" fill="#1f3a5f">二项分布 B(10, 0.3)</text>
<line x1="64" y1="348.0" x2="620" y2="348.0" stroke="#e8eef5" stroke-width="1"/>
<text x="56" y="352.0" text-anchor="end" font-size="11" fill="#64748b">0</text>
<line x1="64" y1="275.5" x2="620" y2="275.5" stroke="#e8eef5" stroke-width="1"/>
<text x="56" y="279.5" text-anchor="end" font-size="11" fill="#64748b">0.075</text>
<line x1="64" y1="203.0" x2="620" y2="203.0" stroke="#e8eef5" stroke-width="1"/>
<text x="56" y="207.0" text-anchor="end" font-size="11" fill="#64748b">0.15</text>
<line x1="64" y1="130.5" x2="620" y2="130.5" stroke="#e8eef5" stroke-width="1"/>
<text x="56" y="134.5" text-anchor="end" font-size="11" fill="#64748b">0.225</text>
<line x1="64" y1="58.0" x2="620" y2="58.0" stroke="#e8eef5" stroke-width="1"/>
<text x="56" y="62.0" text-anchor="end" font-size="11" fill="#64748b">0.3</text>
<line x1="64.0" y1="58" x2="64.0" y2="348" stroke="#e8eef5" stroke-width="1"/>
<text x="64.0" y="366" text-anchor="middle" font-size="11" fill="#64748b">0</text>
<line x1="119.6" y1="58" x2="119.6" y2="348" stroke="#e8eef5" stroke-width="1"/>
<text x="119.6" y="366" text-anchor="middle" font-size="11" fill="#64748b">1</text>
<line x1="175.2" y1="58" x2="175.2" y2="348" stroke="#e8eef5" stroke-width="1"/>
<text x="175.2" y="366" text-anchor="middle" font-size="11" fill="#64748b">2</text>
<line x1="230.8" y1="58" x2="230.8" y2="348" stroke="#e8eef5" stroke-width="1"/>
<text x="230.8" y="366" text-anchor="middle" font-size="11" fill="#64748b">3</text>
<line x1="286.4" y1="58" x2="286.4" y2="348" stroke="#e8eef5" stroke-width="1"/>
<text x="286.4" y="366" text-anchor="middle" font-size="11" fill="#64748b">4</text>
<line x1="342.0" y1="58" x2="342.0" y2="348" stroke="#e8eef5" stroke-width="1"/>
<text x="342.0" y="366" text-anchor="middle" font-size="11" fill="#64748b">5</text>
<line x1="397.6" y1="58" x2="397.6" y2="348" stroke="#e8eef5" stroke-width="1"/>
<text x="397.6" y="366" text-anchor="middle" font-size="11" fill="#64748b">6</text>
<line x1="453.2" y1="58" x2="453.2" y2="348" stroke="#e8eef5" stroke-width="1"/>
<text x="453.2" y="366" text-anchor="middle" font-size="11" fill="#64748b">7</text>
<line x1="508.8" y1="58" x2="508.8" y2="348" stroke="#e8eef5" stroke-width="1"/>
<text x="508.8" y="366" text-anchor="middle" font-size="11" fill="#64748b">8</text>
<line x1="564.4" y1="58" x2="564.4" y2="348" stroke="#e8eef5" stroke-width="1"/>
<text x="564.4" y="366" text-anchor="middle" font-size="11" fill="#64748b">9</text>
<line x1="620.0" y1="58" x2="620.0" y2="348" stroke="#e8eef5" stroke-width="1"/>
<text x="620.0" y="366" text-anchor="middle" font-size="11" fill="#64748b">10</text>
<line x1="64" y1="348" x2="620" y2="348" stroke="#94a3b8" stroke-width="1.5"/>
<line x1="64" y1="58" x2="64" y2="348" stroke="#94a3b8" stroke-width="1.5"/>
<text x="342.0" y="386" text-anchor="middle" font-size="12" fill="#475569">成功次数 k</text>
<text x="16" y="203.0" text-anchor="middle" font-size="12" fill="#475569" transform="rotate(-90 16 203.0)">P(X=k)</text>
<rect x="46.2" y="320.7" width="35.6" height="27.3" fill="#2f80ed" rx="1.5"/>
<text x="64.0" y="315.7" text-anchor="middle" font-size="10" fill="#475569">0.028</text>
<rect x="101.8" y="231.0" width="35.6" height="117.0" fill="#2f80ed" rx="1.5"/>
<text x="119.6" y="226.0" text-anchor="middle" font-size="10" fill="#475569">0.121</text>
<rect x="157.4" y="122.3" width="35.6" height="225.7" fill="#2f80ed" rx="1.5"/>
<text x="175.2" y="117.3" text-anchor="middle" font-size="10" fill="#475569">0.233</text>
<rect x="213.0" y="90.1" width="35.6" height="257.9" fill="#2f80ed" rx="1.5"/>
<text x="230.8" y="85.1" text-anchor="middle" font-size="10" fill="#475569">0.267</text>
<rect x="268.6" y="154.5" width="35.6" height="193.5" fill="#2f80ed" rx="1.5"/>
<text x="286.4" y="149.5" text-anchor="middle" font-size="10" fill="#475569">0.200</text>
<rect x="324.2" y="248.5" width="35.6" height="99.5" fill="#2f80ed" rx="1.5"/>
<text x="342.0" y="243.5" text-anchor="middle" font-size="10" fill="#475569">0.103</text>
<rect x="379.8" y="312.5" width="35.6" height="35.5" fill="#2f80ed" rx="1.5"/>
<text x="397.6" y="307.5" text-anchor="middle" font-size="10" fill="#475569">0.037</text>
<rect x="435.4" y="339.3" width="35.6" height="8.7" fill="#2f80ed" rx="1.5"/>
<rect x="491.0" y="346.6" width="35.6" height="1.4" fill="#2f80ed" rx="1.5"/>
<rect x="546.6" y="347.9" width="35.6" height="0.1" fill="#2f80ed" rx="1.5"/>
<rect x="602.2" y="348.0" width="35.6" height="0.0" fill="#2f80ed" rx="1.5"/>
</svg>